<svg width="1045" height="1045" viewBox="0 0 1045 1045" fill="none" xmlns="http://www.w3.org/2000/svg">
<rect width="1045" height="1045" fill="white"/>
<path d="M19 85.5V152H85.5H152V85.5V19H85.5H19V85.5ZM133 85.5V133H85.5H38V85.5V38H85.5H133V85.5Z" fill="black"/>
<path d="M57 85.5V114H85.5H114V85.5V57H85.5H57V85.5Z" fill="black"/>
<path d="M171 28.5V38H180.5H190V47.5V57H180.5H171V85.5V114H190H209V142.5V171H190H171V180.5V190H161.5H152V180.5V171H142.5H133V180.5V190H142.5H152V199.5V209H142.5H133V218.5V228H142.5H152V237.5V247H142.5H133V256.5V266H142.5H152V275.5V285H142.5H133V294.5V304H142.5H152V294.5V285H161.5H171V304V323H180.5H190V332.5V342H199.5H209V313.5V285H228H247V294.5V304H256.5H266V313.5V323H275.5H285V332.5V342H294.5H304V332.5V323H294.5H285V304V285H294.5H304V294.5V304H313.5H323V313.5V323H332.5H342V304V285H351.5H361V294.5V304H370.5H380V332.5V361H389.5H399V332.5V304H389.5H380V294.5V285H399H418V294.5V304H437H456V285V266H475H494V256.5V247H475H456V256.5V266H446.5H437V275.5V285H427.5H418V266V247H408.5H399V228V209H389.5H380V199.5V190H370.5H361V199.5V209H370.5H380V228V247H370.5H361V237.5V228H351.5H342V199.5V171H351.5H361V161.5V152H370.5H380V142.5V133H389.5H399V161.5V190H408.5H418V209V228H437H456V218.5V209H446.5H437V199.5V190H446.5H456V180.5V171H465.5H475V199.5V228H484.5H494V218.5V209H503.5H513V218.5V228H522.5H532V218.5V209H551H570V218.5V228H560.5H551V237.5V247H541.5H532V256.5V266H541.5H551V256.5V247H570H589V237.5V228H598.5H608V247V266H617.5H627V275.5V285H608H589V294.5V304H579.5H570V294.5V285H522.5H475V304V323H465.5H456V332.5V342H446.5H437V332.5V323H427.5H418V332.5V342H427.5H437V351.5V361H456H475V370.5V380H484.5H494V399V418H484.5H475V437V456H465.5H456V427.5V399H446.5H437V408.5V418H427.5H418V399V380H408.5H399V389.5V399H389.5H380V408.5V418H370.5H361V408.5V399H351.5H342V408.5V418H351.5H361V427.5V437H380H399V446.5V456H389.5H380V465.5V475H370.5H361V465.5V456H342H323V408.5V361H332.5H342V370.5V380H351.5H361V370.5V361H351.5H342V351.5V342H332.5H323V351.5V361H313.5H304V370.5V380H294.5H285V370.5V361H275.5H266V380V399H285H304V427.5V456H294.5H285V437V418H275.5H266V427.5V437H247H228V408.5V380H237.5H247V370.5V361H218.5H190V370.5V380H180.5H171V370.5V361H152H133V351.5V342H142.5H152V332.5V323H142.5H133V332.5V342H123.5H114V351.5V361H104.5H95V370.5V380H85.5H76V399V418H66.5H57V399V380H38H19V389.5V399H28.5H38V408.5V418H47.5H57V437V456H66.5H76V465.5V475H85.5H95V484.5V494H76H57V484.5V475H47.5H38V465.5V456H28.5H19V475V494H28.5H38V503.5V513H47.5H57V522.5V532H47.5H38V541.5V551H47.5H57V541.5V532H66.5H76V541.5V551H85.5H95V560.5V570H142.5H190V560.5V551H199.5H209V560.5V570H218.5H228V579.5V589H218.5H209V598.5V608H180.5H152V598.5V589H142.5H133V598.5V608H142.5H152V617.5V627H142.5H133V636.5V646H142.5H152V655.5V665H133H114V646V627H104.5H95V636.5V646H76H57V636.5V627H66.5H76V617.5V608H47.5H19V617.5V627H28.5H38V636.5V646H47.5H57V655.5V665H38H19V684V703H28.5H38V722V741H28.5H19V750.5V760H28.5H38V750.5V741H47.5H57V731.5V722H66.5H76V731.5V741H85.5H95V750.5V760H76H57V769.5V779H76H95V769.5V760H104.5H114V788.5V817H95H76V807.5V798H66.5H57V807.5V817H38H19V826.5V836H28.5H38V845.5V855H57H76V864.5V874H85.5H95V864.5V855H85.5H76V845.5V836H114H152V845.5V855H142.5H133V864.5V874H142.5H152V864.5V855H161.5H171V845.5V836H161.5H152V826.5V817H142.5H133V807.5V798H142.5H152V788.5V779H142.5H133V769.5V760H142.5H152V750.5V741H142.5H133V750.5V760H123.5H114V741V722H133H152V712.5V703H171H190V712.5V722H199.5H209V712.5V703H199.5H190V693.5V684H199.5H209V674.5V665H190H171V655.5V646H209H247V636.5V627H228H209V617.5V608H237.5H266V646V684H256.5H247V693.5V703H256.5H266V712.5V722H256.5H247V741V760H237.5H228V750.5V741H218.5H209V760V779H228H247V788.5V798H218.5H190V826.5V855H199.5H209V864.5V874H218.5H228V864.5V855H218.5H209V845.5V836H228H247V855V874H256.5H266V893V912H285H304V921.5V931H275.5H247V940.5V950H237.5H228V959.5V969H237.5H247V978.5V988H256.5H266V978.5V969H256.5H247V959.5V950H275.5H304V959.5V969H313.5H323V950V931H332.5H342V940.5V950H370.5H399V959.5V969H408.5H418V997.5V1026H427.5H437V1016.5V1007H456H475V997.5V988H484.5H494V997.5V1007H503.5H513V997.5V988H522.5H532V997.5V1007H551H570V1016.5V1026H579.5H589V1007V988H598.5H608V1007V1026H627H646V1007V988H655.5H665V1007V1026H674.5H684V1016.5V1007H693.5H703V997.5V988H731.5H760V997.5V1007H750.5H741V1016.5V1026H750.5H760V1016.5V1007H779H798V1016.5V1026H807.5H817V1007V988H826.5H836V997.5V1007H845.5H855V1016.5V1026H864.5H874V1016.5V1007H864.5H855V997.5V988H845.5H836V978.5V969H817H798V959.5V950H836H874V969V988H883.5H893V978.5V969H902.5H912V978.5V988H921.5H931V969V950H950H969V959.5V969H978.5H988V997.5V1026H997.5H1007V988V950H988H969V940.5V931H959.5H950V921.5V912H969H988V921.5V931H1007H1026V921.5V912H1016.5H1007V902.5V893H978.5H950V883.5V874H978.5H1007V864.5V855H1016.5H1026V845.5V836H997.5H969V826.5V817H978.5H988V807.5V798H997.5H1007V807.5V817H1016.5H1026V807.5V798H1016.5H1007V779V760H1016.5H1026V741V722H1016.5H1007V712.5V703H988H969V731.5V760H940.5H912V750.5V741H921.5H931V731.5V722H940.5H950V712.5V703H940.5H931V712.5V722H921.5H912V712.5V703H893H874V712.5V722H855H836V712.5V703H817H798V712.5V722H760H722V703V684H731.5H741V674.5V665H731.5H722V655.5V646H712.5H703V636.5V627H712.5H722V617.5V608H731.5H741V617.5V627H750.5H760V608V589H769.5H779V617.5V646H788.5H798V655.5V665H807.5H817V674.5V684H826.5H836V665V646H874H912V655.5V665H940.5H969V674.5V684H988H1007V665V646H997.5H988V655.5V665H978.5H969V646V627H978.5H988V608V589H978.5H969V598.5V608H940.5H912V617.5V627H883.5H855V617.5V608H864.5H874V598.5V589H883.5H893V579.5V570H902.5H912V579.5V589H921.5H931V579.5V570H950H969V551V532H997.5H1026V522.5V513H1007H988V503.5V494H997.5H1007V465.5V437H1016.5H1026V408.5V380H997.5H969V370.5V361H978.5H988V351.5V342H978.5H969V332.5V323H959.5H950V313.5V304H969H988V313.5V323H997.5H1007V342V361H1016.5H1026V342V323H1016.5H1007V313.5V304H1016.5H1026V266V228H1016.5H1007V209V190H1016.5H1026V180.5V171H1016.5H1007V180.5V190H997.5H988V180.5V171H959.5H931V180.5V190H921.5H912V199.5V209H931H950V199.5V190H969H988V218.5V247H978.5H969V256.5V266H959.5H950V247V228H921.5H893V218.5V209H874H855V218.5V228H845.5H836V237.5V247H826.5H817V256.5V266H826.5H836V275.5V285H826.5H817V294.5V304H788.5H760V285V266H750.5H741V285V304H750.5H760V332.5V361H750.5H741V370.5V380H760H779V351.5V323H788.5H798V332.5V342H817H836V351.5V361H845.5H855V370.5V380H845.5H836V389.5V399H807.5H779V408.5V418H788.5H798V427.5V437H779H760V446.5V456H769.5H779V465.5V475H788.5H798V465.5V456H807.5H817V465.5V475H836H855V484.5V494H845.5H836V513V532H845.5H855V541.5V551H845.5H836V560.5V570H855H874V579.5V589H864.5H855V598.5V608H845.5H836V627V646H826.5H817V627V608H807.5H798V598.5V589H807.5H817V579.5V570H807.5H798V579.5V589H788.5H779V570V551H798H817V532V513H798H779V522.5V532H769.5H760V503.5V475H750.5H741V465.5V456H731.5H722V446.5V437H731.5H741V427.5V418H750.5H760V408.5V399H741H722V380V361H703H684V351.5V342H674.5H665V351.5V361H646H627V370.5V380H617.5H608V389.5V399H617.5H627V389.5V380H646H665V370.5V361H674.5H684V399V437H665H646V427.5V418H655.5H665V408.5V399H655.5H646V408.5V418H617.5H589V408.5V399H570H551V408.5V418H560.5H570V427.5V437H579.5H589V446.5V456H579.5H570V465.5V475H522.5H475V465.5V456H484.5H494V446.5V437H503.5H513V446.5V456H532H551V446.5V437H532H513V418V399H522.5H532V389.5V380H513H494V370.5V361H484.5H475V342V323H484.5H494V332.5V342H503.5H513V351.5V361H532H551V332.5V304H560.5H570V332.5V361H579.5H589V351.5V342H617.5H646V332.5V323H655.5H665V294.5V266H646H627V256.5V247H636.5H646V228V209H655.5H665V218.5V228H684H703V237.5V247H693.5H684V256.5V266H693.5H703V275.5V285H712.5H722V256.5V228H731.5H741V237.5V247H769.5H798V237.5V228H807.5H817V218.5V209H826.5H836V199.5V190H845.5H855V180.5V171H864.5H874V180.5V190H883.5H893V180.5V171H883.5H874V152V133H864.5H855V152V171H845.5H836V123.5V76H845.5H855V85.5V95H864.5H874V85.5V76H864.5H855V57V38H845.5H836V28.5V19H826.5H817V38V57H826.5H836V66.5V76H817H798V57V38H779H760V57V76H750.5H741V66.5V57H722H703V47.5V38H722H741V28.5V19H712.5H684V28.5V38H674.5H665V57V76H655.5H646V57V38H636.5H627V47.5V57H608H589V47.5V38H598.5H608V28.5V19H589H570V38V57H560.5H551V47.5V38H541.5H532V28.5V19H494H456V28.5V38H475H494V47.5V57H465.5H437V38V19H427.5H418V47.5V76H446.5H475V114V152H465.5H456V123.5V95H446.5H437V123.5V152H427.5H418V123.5V95H408.5H399V104.5V114H389.5H380V123.5V133H370.5H361V114V95H370.5H380V85.5V76H389.5H399V66.5V57H389.5H380V47.5V38H370.5H361V28.5V19H351.5H342V38V57H332.5H323V38V19H313.5H304V38V57H294.5H285V38V19H266H247V47.5V76H237.5H228V85.5V95H237.5H247V123.5V152H237.5H228V133V114H218.5H209V104.5V95H199.5H190V85.5V76H199.5H209V47.5V19H190H171V28.5ZM532 66.5V95H513H494V85.5V76H503.5H513V57V38H522.5H532V66.5ZM323 66.5V76H332.5H342V66.5V57H351.5H361V66.5V76H351.5H342V95V114H332.5H323V95V76H313.5H304V85.5V95H294.5H285V85.5V76H294.5H304V66.5V57H313.5H323V66.5ZM266 85.5V95H256.5H247V85.5V76H256.5H266V85.5ZM646 85.5V95H627H608V104.5V114H636.5H665V104.5V95H674.5H684V104.5V114H693.5H703V104.5V95H712.5H722V85.5V76H731.5H741V85.5V95H731.5H722V104.5V114H712.5H703V133V152H693.5H684V142.5V133H674.5H665V142.5V152H655.5H646V161.5V171H665H684V190V209H674.5H665V199.5V190H655.5H646V199.5V209H636.5H627V218.5V228H617.5H608V209V190H598.5H589V180.5V171H598.5H608V142.5V114H589H570V95V76H608H646V85.5ZM798 95V114H807.5H817V133V152H807.5H798V133V114H788.5H779V104.5V95H769.5H760V85.5V76H779H798V95ZM285 133V152H294.5H304V142.5V133H313.5H323V180.5V228H332.5H342V256.5V285H332.5H323V256.5V228H313.5H304V247V266H294.5H285V275.5V285H266H247V275.5V266H218.5H190V256.5V247H180.5H171V228V209H180.5H190V199.5V190H199.5H209V199.5V209H199.5H190V228V247H199.5H209V237.5V228H218.5H228V218.5V209H237.5H247V199.5V190H237.5H228V180.5V171H247H266V142.5V114H275.5H285V133ZM551 142.5V171H522.5H494V142.5V114H522.5H551V142.5ZM760 123.5V133H769.5H779V152V171H769.5H760V180.5V190H779H798V180.5V171H807.5H817V180.5V190H807.5H798V209V228H769.5H741V209V190H722H703V180.5V171H712.5H722V152V133H731.5H741V123.5V114H750.5H760V123.5ZM361 142.5V152H351.5H342V142.5V133H351.5H361V142.5ZM589 142.5V152H579.5H570V142.5V133H579.5H589V142.5ZM532 199.5V209H522.5H513V199.5V190H522.5H532V199.5ZM893 247V266H921.5H950V275.5V285H940.5H931V304V323H940.5H950V332.5V342H940.5H931V351.5V361H921.5H912V380V399H902.5H893V408.5V418H902.5H912V427.5V437H931H950V427.5V418H940.5H931V408.5V399H950H969V418V437H978.5H988V465.5V494H978.5H969V513V532H959.5H950V513V494H959.5H969V484.5V475H950H931V465.5V456H921.5H912V446.5V437H902.5H893V456V475H874H855V446.5V418H864.5H874V408.5V399H864.5H855V389.5V380H864.5H874V370.5V361H864.5H855V342V323H836H817V313.5V304H826.5H836V294.5V285H845.5H855V294.5V304H864.5H874V313.5V323H883.5H893V294.5V266H883.5H874V256.5V247H864.5H855V256.5V266H845.5H836V256.5V247H845.5H855V237.5V228H874H893V247ZM380 275.5V285H370.5H361V275.5V266H370.5H380V275.5ZM988 275.5V285H978.5H969V275.5V266H978.5H988V275.5ZM646 294.5V304H636.5H627V294.5V285H636.5H646V294.5ZM532 313.5V323H522.5H513V313.5V304H522.5H532V313.5ZM608 313.5V323H598.5H589V313.5V304H598.5H608V313.5ZM114 389.5V399H123.5H133V389.5V380H152H171V389.5V399H180.5H190V389.5V380H199.5H209V399V418H199.5H190V427.5V437H209H228V446.5V456H247H266V475V494H275.5H285V503.5V513H304H323V494V475H332.5H342V494V513H351.5H361V503.5V494H380H399V503.5V513H408.5H418V494V475H408.5H399V465.5V456H418H437V465.5V475H456H475V494V513H456H437V522.5V532H446.5H456V541.5V551H465.5H475V570V589H484.5H494V627V665H484.5H475V636.5V608H465.5H456V617.5V627H446.5H437V646V665H446.5H456V674.5V684H446.5H437V693.5V703H446.5H456V712.5V722H446.5H437V731.5V741H465.5H494V731.5V722H484.5H475V712.5V703H484.5H494V693.5V684H513H532V674.5V665H541.5H551V655.5V646H560.5H570V655.5V665H579.5H589V674.5V684H598.5H608V674.5V665H617.5H627V655.5V646H608H589V636.5V627H570H551V617.5V608H532H513V589V570H541.5H570V579.5V589H579.5H589V579.5V570H617.5H646V551V532H627H608V522.5V513H589H570V494V475H579.5H589V465.5V456H598.5H608V446.5V437H617.5H627V446.5V456H617.5H608V465.5V475H598.5H589V484.5V494H598.5H608V503.5V513H636.5H665V503.5V494H684H703V503.5V513H712.5H722V522.5V532H731.5H741V551V570H750.5H760V579.5V589H741H722V598.5V608H712.5H703V617.5V627H693.5H684V655.5V684H693.5H703V703V722H693.5H684V731.5V741H693.5H703V750.5V760H712.5H722V750.5V741H731.5H741V760V779H750.5H760V788.5V798H769.5H779V788.5V779H836H893V769.5V760H902.5H912V769.5V779H921.5H931V788.5V798H940.5H950V788.5V779H959.5H969V769.5V760H978.5H988V750.5V741H997.5H1007V750.5V760H997.5H988V769.5V779H978.5H969V788.5V798H959.5H950V817V836H940.5H931V845.5V855H921.5H912V845.5V836H902.5H893V845.5V855H883.5H874V836V817H883.5H893V807.5V798H864.5H836V817V836H807.5H779V845.5V855H769.5H760V893V931H769.5H779V921.5V912H798H817V921.5V931H807.5H798V940.5V950H779H760V940.5V931H750.5H741V893V855H750.5H760V845.5V836H741H722V817V798H712.5H703V826.5V855H712.5H722V883.5V912H712.5H703V893V874H693.5H684V883.5V893H674.5H665V902.5V912H655.5H646V921.5V931H655.5H665V940.5V950H674.5H684V959.5V969H693.5H703V959.5V950H712.5H722V959.5V969H712.5H703V978.5V988H684H665V978.5V969H617.5H570V950V931H579.5H589V921.5V912H598.5H608V902.5V893H617.5H627V883.5V874H608H589V864.5V855H570H551V845.5V836H541.5H532V826.5V817H522.5H513V807.5V798H522.5H532V760V722H522.5H513V731.5V741H503.5H494V750.5V760H503.5H513V769.5V779H503.5H494V788.5V798H484.5H475V788.5V779H465.5H456V798V817H465.5H475V826.5V836H494H513V845.5V855H494H475V864.5V874H465.5H456V864.5V855H446.5H437V845.5V836H427.5H418V826.5V817H408.5H399V836V855H389.5H380V874V893H370.5H361V883.5V874H351.5H342V893V912H351.5H361V921.5V931H351.5H342V921.5V912H323H304V893V874H323H342V864.5V855H313.5H285V864.5V874H275.5H266V845.5V817H275.5H285V798V779H275.5H266V750.5V722H275.5H285V712.5V703H294.5H304V693.5V684H294.5H285V655.5V627H294.5H304V617.5V608H285H266V598.5V589H275.5H285V579.5V570H294.5H304V560.5V551H313.5H323V541.5V532H304H285V541.5V551H266H247V560.5V570H237.5H228V560.5V551H218.5H209V541.5V532H199.5H190V522.5V513H209H228V484.5V456H209H190V446.5V437H152H114V446.5V456H133H152V465.5V475H133H114V465.5V456H95H76V446.5V437H85.5H95V427.5V418H104.5H114V408.5V399H104.5H95V389.5V380H104.5H114V389.5ZM722 418V437H712.5H703V446.5V456H693.5H684V465.5V475H665H646V484.5V494H636.5H627V484.5V475H636.5H646V465.5V456H665H684V446.5V437H693.5H703V418V399H712.5H722V418ZM418 427.5V437H408.5H399V427.5V418H408.5H418V427.5ZM209 484.5V494H199.5H190V484.5V475H199.5H209V484.5ZM171 522.5V551H142.5H114V522.5V494H142.5H171V522.5ZM551 522.5V551H522.5H494V522.5V494H522.5H551V522.5ZM931 522.5V551H902.5H874V522.5V494H902.5H931V522.5ZM95 522.5V532H85.5H76V522.5V513H85.5H95V522.5ZM589 541.5V551H579.5H570V541.5V532H579.5H589V541.5ZM532 636.5V646H522.5H513V636.5V627H522.5H532V636.5ZM57 693.5V703H47.5H38V693.5V684H47.5H57V693.5ZM152 693.5V703H133H114V712.5V722H95H76V712.5V703H85.5H95V693.5V684H123.5H152V693.5ZM836 731.5V741H855H874V750.5V760H855H836V750.5V741H826.5H817V750.5V760H807.5H798V741V722H817H836V731.5ZM912 731.5V741H902.5H893V731.5V722H902.5H912V731.5ZM779 750.5V760H769.5H760V750.5V741H769.5H779V750.5ZM76 826.5V836H66.5H57V826.5V817H66.5H76V826.5ZM836 864.5V874H845.5H855V883.5V893H845.5H836V883.5V874H826.5H817V864.5V855H826.5H836V864.5ZM437 893V912H427.5H418V921.5V931H399H380V921.5V912H399H418V902.5V893H408.5H399V883.5V874H418H437V893ZM551 902.5V931H522.5H494V902.5V874H522.5H551V902.5ZM931 902.5V931H902.5H874V902.5V874H902.5H931V902.5ZM855 921.5V931H845.5H836V921.5V912H845.5H855V921.5ZM475 959.5V988H465.5H456V969V950H446.5H437V940.5V931H456H475V959.5ZM513 969V988H503.5H494V969V950H503.5H513V969ZM551 969V988H541.5H532V969V950H541.5H551V969ZM779 978.5V988H769.5H760V978.5V969H769.5H779V978.5Z" fill="black"/>
<path d="M627 142.5V152H636.5H646V142.5V133H636.5H627V142.5Z" fill="black"/>
<path d="M608 180.5V190H617.5H627V180.5V171H617.5H608V180.5Z" fill="black"/>
<path d="M285 180.5V190H294.5H304V180.5V171H294.5H285V180.5Z" fill="black"/>
<path d="M266 218.5V228H247H228V237.5V247H237.5H247V256.5V266H266H285V247V228H294.5H304V218.5V209H285H266V218.5Z" fill="black"/>
<path d="M513 142.5V152H522.5H532V142.5V133H522.5H513V142.5Z" fill="black"/>
<path d="M741 152V171H750.5H760V152V133H750.5H741V152Z" fill="black"/>
<path d="M893 332.5V342H883.5H874V351.5V361H893H912V342V323H902.5H893V332.5Z" fill="black"/>
<path d="M133 408.5V418H152H171V408.5V399H152H133V408.5Z" fill="black"/>
<path d="M247 503.5V513H256.5H266V522.5V532H275.5H285V522.5V513H275.5H266V503.5V494H256.5H247V503.5Z" fill="black"/>
<path d="M665 522.5V532H674.5H684V522.5V513H674.5H665V522.5Z" fill="black"/>
<path d="M342 541.5V551H361H380V560.5V570H389.5H399V551V532H370.5H342V541.5Z" fill="black"/>
<path d="M418 551V570H427.5H437V589V608H446.5H456V589V570H446.5H437V551V532H427.5H418V551Z" fill="black"/>
<path d="M684 560.5V570H665H646V579.5V589H636.5H627V598.5V608H617.5H608V617.5V627H617.5H627V617.5V608H636.5H646V627V646H655.5H665V636.5V627H674.5H684V617.5V608H693.5H703V598.5V589H712.5H722V579.5V570H712.5H703V560.5V551H693.5H684V560.5Z" fill="black"/>
<path d="M304 589V608H313.5H323V598.5V589H332.5H342V608V627H323H304V636.5V646H332.5H361V655.5V665H351.5H342V674.5V684H332.5H323V674.5V665H313.5H304V674.5V684H313.5H323V693.5V703H332.5H342V722V741H332.5H323V731.5V722H304H285V750.5V779H313.5H342V788.5V798H323H304V807.5V817H313.5H323V826.5V836H332.5H342V845.5V855H351.5H361V836V817H380H399V798V779H427.5H456V769.5V760H427.5H399V750.5V741H408.5H418V722V703H408.5H399V684V665H389.5H380V655.5V646H370.5H361V636.5V627H380H399V636.5V646H408.5H418V636.5V627H408.5H399V617.5V608H408.5H418V598.5V589H399H380V598.5V608H370.5H361V598.5V589H351.5H342V579.5V570H323H304V589ZM380 693.5V703H389.5H399V712.5V722H389.5H380V741V760H370.5H361V769.5V779H370.5H380V788.5V798H370.5H361V788.5V779H351.5H342V769.5V760H351.5H361V741V722H370.5H380V712.5V703H370.5H361V693.5V684H370.5H380V693.5Z" fill="black"/>
<path d="M551 598.5V608H560.5H570V598.5V589H560.5H551V598.5Z" fill="black"/>
<path d="M418 674.5V684H427.5H437V674.5V665H427.5H418V674.5Z" fill="black"/>
<path d="M627 674.5V684H617.5H608V712.5V741H598.5H589V769.5V798H579.5H570V788.5V779H560.5H551V788.5V798H541.5H532V807.5V817H541.5H551V826.5V836H570H589V817V798H617.5H646V817V836H655.5H665V826.5V817H674.5H684V798V779H674.5H665V769.5V760H636.5H608V750.5V741H636.5H665V731.5V722H646H627V712.5V703H636.5H646V693.5V684H655.5H665V674.5V665H646H627V674.5ZM665 788.5V798H655.5H646V788.5V779H655.5H665V788.5ZM570 807.5V817H560.5H551V807.5V798H560.5H570V807.5Z" fill="black"/>
<path d="M551 693.5V703H560.5H570V712.5V722H560.5H551V731.5V741H560.5H570V731.5V722H579.5H589V712.5V703H579.5H570V693.5V684H560.5H551V693.5Z" fill="black"/>
<path d="M494 712.5V722H503.5H513V712.5V703H503.5H494V712.5Z" fill="black"/>
<path d="M722 788.5V798H731.5H741V788.5V779H731.5H722V788.5Z" fill="black"/>
<path d="M418 807.5V817H427.5H437V807.5V798H427.5H418V807.5Z" fill="black"/>
<path d="M779 807.5V817H769.5H760V826.5V836H769.5H779V826.5V817H798H817V807.5V798H798H779V807.5Z" fill="black"/>
<path d="M912 807.5V817H921.5H931V807.5V798H921.5H912V807.5Z" fill="black"/>
<path d="M608 836V855H617.5H627V836V817H617.5H608V836Z" fill="black"/>
<path d="M646 864.5V874H665H684V864.5V855H665H646V864.5Z" fill="black"/>
<path d="M627 902.5V912H617.5H608V921.5V931H598.5H589V940.5V950H608H627V931V912H636.5H646V902.5V893H636.5H627V902.5Z" fill="black"/>
<path d="M133 522.5V532H142.5H152V522.5V513H142.5H133V522.5Z" fill="black"/>
<path d="M513 522.5V532H522.5H532V522.5V513H522.5H513V522.5Z" fill="black"/>
<path d="M893 522.5V532H902.5H912V522.5V513H902.5H893V522.5Z" fill="black"/>
<path d="M513 902.5V912H522.5H532V902.5V893H522.5H513V902.5Z" fill="black"/>
<path d="M893 902.5V912H902.5H912V902.5V893H902.5H893V902.5Z" fill="black"/>
<path d="M893 85.5V152H959.5H1026V85.5V19H959.5H893V85.5ZM1007 85.5V133H959.5H912V85.5V38H959.5H1007V85.5Z" fill="black"/>
<path d="M931 85.5V114H959.5H988V85.5V57H959.5H931V85.5Z" fill="black"/>
<path d="M171 142.5V152H180.5H190V142.5V133H180.5H171V142.5Z" fill="black"/>
<path d="M19 180.5V190H38H57V209V228H85.5H114V209V190H104.5H95V180.5V171H57H19V180.5Z" fill="black"/>
<path d="M19 218.5V228H28.5H38V218.5V209H28.5H19V218.5Z" fill="black"/>
<path d="M38 256.5V266H28.5H19V275.5V285H28.5H38V275.5V266H47.5H57V256.5V247H47.5H38V256.5Z" fill="black"/>
<path d="M779 275.5V285H788.5H798V275.5V266H788.5H779V275.5Z" fill="black"/>
<path d="M57 294.5V304H47.5H38V313.5V323H57H76V304V285H66.5H57V294.5Z" fill="black"/>
<path d="M228 332.5V342H237.5H247V332.5V323H237.5H228V332.5Z" fill="black"/>
<path d="M722 332.5V342H731.5H741V332.5V323H731.5H722V332.5Z" fill="black"/>
<path d="M19 351.5V361H38H57V351.5V342H38H19V351.5Z" fill="black"/>
<path d="M798 370.5V380H807.5H817V370.5V361H807.5H798V370.5Z" fill="black"/>
<path d="M988 560.5V570H997.5H1007V560.5V551H997.5H988V560.5Z" fill="black"/>
<path d="M57 579.5V589H66.5H76V579.5V570H66.5H57V579.5Z" fill="black"/>
<path d="M1007 617.5V627H1016.5H1026V617.5V608H1016.5H1007V617.5Z" fill="black"/>
<path d="M760 674.5V684H769.5H779V674.5V665H769.5H760V674.5Z" fill="black"/>
<path d="M874 674.5V684H883.5H893V674.5V665H883.5H874V674.5Z" fill="black"/>
<path d="M171 760V779H180.5H190V760V741H180.5H171V760Z" fill="black"/>
<path d="M19 788.5V798H28.5H38V788.5V779H28.5H19V788.5Z" fill="black"/>
<path d="M171 883.5V893H180.5H190V902.5V912H199.5H209V902.5V893H199.5H190V883.5V874H180.5H171V883.5Z" fill="black"/>
<path d="M19 959.5V1026H85.5H152V959.5V893H85.5H19V959.5ZM133 959.5V1007H85.5H38V959.5V912H85.5H133V959.5Z" fill="black"/>
<path d="M57 959.5V988H85.5H114V959.5V931H85.5H57V959.5Z" fill="black"/>
<path d="M228 902.5V912H237.5H247V902.5V893H237.5H228V902.5Z" fill="black"/>
<path d="M171 988V1026H180.5H190V1016.5V1007H209H228V1016.5V1026H247H266V1016.5V1007H247H228V997.5V988H209H190V969V950H180.5H171V988Z" fill="black"/>
<path d="M361 978.5V988H351.5H342V997.5V1007H351.5H361V997.5V988H370.5H380V997.5V1007H389.5H399V997.5V988H389.5H380V978.5V969H370.5H361V978.5Z" fill="black"/>
<path d="M285 1007V1026H304H323V1016.5V1007H313.5H304V997.5V988H294.5H285V1007Z" fill="black"/>
<path d="M950 997.5V1007H959.5H969V997.5V988H959.5H950V997.5Z" fill="black"/>
<path d="M912 1016.5V1026H921.5H931V1016.5V1007H921.5H912V1016.5Z" fill="black"/>
</svg>
