<!-- sprite.svg -->
<svg xmlns="http://www.w3.org/2000/svg" xmlns:xlink="http://www.w3.org/1999/xlink" style="display: none;">
  <defs>
    <symbol viewBox="0 0 24 24" id="git-hub">
      <path
        d="m12 0c-6.626 0-12 5.373-12 12 0 5.302 3.438 9.8 8.207 11.387.599.111.793-.261.793-.577v-2.234c-3.338.726-4.033-1.416-4.033-1.416-.546-1.387-1.333-1.756-1.333-1.756-1.089-.745.083-.729.083-.729 1.205.084 1.839 1.237 1.839 1.237 1.07 1.834 2.807 1.304 3.492.997.107-.775.418-1.305.762-1.604-2.665-.305-5.467-1.334-5.467-5.931 0-1.311.469-2.381 1.236-3.221-.124-.303-.535-1.524.117-3.176 0 0 1.008-.322 3.301 1.23.957-.266 1.983-.399 3.003-.404 1.02.005 2.047.138 3.006.404 2.291-1.552 3.297-1.23 3.297-1.23.653 1.653.242 2.874.118 3.176.77.84 1.235 1.911 1.235 3.221 0 4.609-2.807 5.624-5.479 5.921.43.372.823 1.102.823 2.222v3.293c0 .319.192.694.801.576 4.765-1.589 8.199-6.086 8.199-11.386 0-6.627-5.373-12-12-12z" />
    </symbol>
    <symbol viewBox="0 0 24 24" id="linked-in">
      <path
        d="M19 0h-14c-2.761 0-5 2.239-5 5v14c0 2.761 2.239 5 5 5h14c2.762 0 5-2.239 5-5v-14c0-2.761-2.238-5-5-5zm-11 19h-3v-11h3v11zm-1.5-12.268c-.966 0-1.75-.79-1.75-1.764s.784-1.764 1.75-1.764 1.75.79 1.75 1.764-.783 1.764-1.75 1.764zm13.5 12.268h-3v-5.604c0-3.368-4-3.113-4 0v5.604h-3v-11h3v1.765c1.396-2.586 7-2.777 7 2.476v6.759z" />
    </symbol>
    <symbol viewBox="0 0 512.000000 512.000000" preserveAspectRatio="xMidYMid meet" id="qr">
      <g transform="translate(0.000000,512.000000) scale(0.100000,-0.100000)">
        <path d="M131 5100 c-49 -12 -83 -40 -108 -90 l-23 -44 0 -956 0 -956 22 -44
c27 -52 60 -78 114 -90 51 -12 1867 -12 1918 0 45 10 81 34 110 74 21 27 21
33 21 1016 0 983 0 989 -21 1016 -29 40 -65 64 -110 74 -48 12 -1875 11 -1923
0z m1719 -1090 l0 -750 -755 0 -755 0 0 750 0 750 755 0 755 0 0 -750z" />
        <path d="M800 4010 l0 -300 295 0 295 0 0 300 0 300 -295 0 -295 0 0 -300z" />
        <path d="M2857 5099 c-51 -12 -82 -34 -109 -78 l-23 -36 0 -976 0 -975 27 -41
c14 -22 43 -48 65 -59 37 -18 74 -19 1003 -19 l965 0 41 24 c24 13 52 41 65
65 l24 41 0 965 0 965 -24 41 c-13 24 -41 52 -65 65 l-41 24 -945 2 c-532 1
-961 -3 -983 -8z m1713 -1089 l0 -750 -750 0 -750 0 0 750 0 750 750 0 750 0
0 -750z" />
        <path d="M3522 4013 l3 -298 295 0 295 0 0 295 0 295 -298 3 -297 2 2 -297z" />
        <path d="M135 2381 c-45 -11 -82 -38 -107 -80 l-23 -36 0 -970 0 -970 24 -41
c13 -24 41 -52 65 -65 l41 -24 955 0 c525 0 967 3 982 7 35 10 85 53 106 92
16 29 17 105 20 966 2 638 -1 950 -8 985 -12 54 -38 91 -85 121 -28 18 -67 19
-985 21 -525 0 -969 -2 -985 -6z m1715 -1091 l0 -750 -750 0 -750 0 0 750 0
750 750 0 750 0 0 -750z" />
        <path d="M802 1293 l3 -298 295 0 295 0 0 295 0 295 -298 3 -297 2 2 -297z" />
        <path d="M2750 2090 l0 -300 295 0 295 0 0 -295 0 -295 -295 0 -295 0 0 -295
0 -295 295 0 295 0 0 295 0 295 295 0 295 0 0 295 0 295 298 2 297 3 0 295 0
295 -297 3 -298 2 0 -300 0 -300 -295 0 -295 0 0 300 0 300 -295 0 -295 0 0
-300z" />
        <path d="M4530 1495 l0 -295 295 0 295 0 0 295 0 295 -295 0 -295 0 0 -295z" />
        <path d="M3932 313 l3 -298 295 0 295 0 0 295 0 295 -298 3 -297 2 2 -297z" />
      </g>
    </symbol>
  </defs>
</svg>